<?xml version="1.0" encoding="UTF-8"?>
<svg width="900px" height="816px" viewBox="0 0 900 816" version="1.1" xmlns="http://www.w3.org/2000/svg" xmlns:xlink="http://www.w3.org/1999/xlink">
    <!-- Generator: Sketch 61.2 (89653) - https://sketch.com -->
    <title>new_logo</title>
    <desc>Created with Sketch.</desc>
    <defs>
        <path d="M503.974888,55.5139254 C523.745684,62.7887863 536.965956,73.2311111 538.237968,75.1008875 C538.884441,76.0511625 541.059544,79.7761402 544.763274,86.2758206 C570.531753,97.2432111 594.282223,112.583187 615.247261,131.451812 C617.758981,123.58673 639.781711,102.751126 684.53728,105.198565 C732.193326,107.804616 759.926238,126.385107 797.512933,171.474596 C835.099629,216.564085 850.152926,295.738794 839.822359,348.272258 C829.491793,400.805722 708.308789,504.079962 670.262238,495.496406 L670.537454,495.550871 C661.263511,511.858373 650.49826,527.057781 638.448568,540.924223 L638.480432,540.929333 C643.245484,542.811231 648.764293,560.518343 649.820404,562.418372 L649.853,562.474 L649.832251,562.493986 C648.458258,563.894678 638.82042,578.823722 627.46626,599.608489 C628.102629,599.761887 628.756283,599.945873 629.425774,600.161559 C649.928278,606.766739 665,638.111617 665,655.115412 C665,672.119207 658.120727,681.885579 644.734347,688.14095 C631.347968,694.396321 602.807997,697.36959 591.925571,692.75527 C591.150325,692.426554 590.250883,692.085231 589.2468,691.732101 C587.561883,699.412431 586.602982,706.662247 586.602982,713.207718 C586.602982,714.017685 448.478974,766 448.478974,766 C448.478974,766 313.576997,715.248704 313.576997,713.207718 C313.576997,706.80405 312.890469,700.120604 311.662392,693.282682 C299.893048,697.122029 273.10699,694.141626 260.265653,688.14095 C246.879273,681.885579 240,672.119207 240,655.115412 C240,638.522286 254.352502,608.27243 274.098362,600.682877 C262.087575,579.307877 252,564.202426 252,562.422876 C252,558.026184 258.765135,540.929333 262.128862,540.929333 L262.230352,540.929102 C262.301105,540.928873 262.40175,540.928473 262.531736,540.927907 L262.556675,540.930256 C250.547315,527.111039 239.813703,511.967815 230.560617,495.723183 C191.260848,502.004327 72.404136,400.276496 62.1776406,348.272258 C51.8470744,295.738794 66.9003715,216.564085 104.487067,171.474596 C142.073762,126.385107 169.806674,107.804616 217.46272,105.198565 C261.003816,102.817539 283.029077,122.473098 286.508068,130.787319 C308.927606,110.749905 334.510511,94.7429083 362.316262,83.7747366 C363.988362,80.292006 367.056646,75.1008875 367.056646,75.1008875 C367.056646,75.1008875 380.026821,63.6477242 401.807868,55.5139254 C415.382561,50.4446639 433.850774,47.345573 450.229837,47.0271792 C468.50089,46.6720069 488.483734,49.8138017 503.974888,55.5139254 Z M533.42172,552 L452.033,568.247 L452.311861,568.300923 L524.583663,554 L524.583663,616.483441 L452.311861,649.452945 L377,616.483441 L377,554 L444.345,566.787 L451.958705,568.262701 L452.033,568.247 L444.345,566.787 L368,552 L368,622.125246 C423.97247,648.310871 451.958705,661.403683 451.958705,661.403683 C451.958705,661.403683 479.113044,648.310871 533.42172,622.125246 L533.42172,622.125246 L533.42172,552 Z M613.129554,627.509423 L612.623147,628.565654 C608.622967,636.943894 604.747504,645.630481 601.262906,654.313538 C608.507665,654.912448 616.685999,655.223077 625.897484,655.115412 C627.456936,655.097185 627.116031,643.718386 615.194516,630.199571 C614.435132,629.338441 613.747045,628.438336 613.129554,627.509423 Z M289.634688,630.39474 L289.451303,630.604484 C277.877341,643.944826 277.558659,655.097367 279.102516,655.115412 C286.853652,655.206009 293.873253,655.000426 300.220838,654.57616 C296.99193,646.339421 293.384672,638.210515 289.634688,630.39474 Z M589.915118,177.078903 L589.009976,177.551612 C544.040962,201.407668 521.202792,263.872541 537.193209,328.006604 C555.364139,400.88622 616.794328,448.323269 674.401378,433.960219 C683.48662,431.695013 691.934184,428.027959 699.647954,423.171687 C699.605969,423.331169 699.564829,423.492081 699.523562,423.652935 L700.152373,422.851764 C705.111917,419.682914 709.764709,416.020284 714.084882,411.921097 C708.214796,414.948336 701.975007,417.321229 695.401378,418.960219 C637.794328,433.323269 576.364139,385.88622 558.193209,313.006604 C544.800848,259.292776 558.644673,206.749795 589.915118,177.078903 Z M312.079098,176.139273 L312.704884,176.720274 C344.242981,206.325102 358.253278,259.075688 344.806791,313.006604 C326.635861,385.88622 265.205672,433.323269 207.598622,418.960219 C200.274891,417.134208 193.365535,414.39725 186.920902,410.860727 C191.204476,414.812658 195.806809,418.340679 200.702435,421.391144 L201.009826,421.77524 L201.009826,421.77524 L200.949607,421.544597 C208.501444,426.21595 216.747409,429.753363 225.598622,431.960219 C283.205672,446.323269 344.635861,398.88622 362.806791,326.006604 C378.667603,262.392359 356.326702,200.420354 312.079098,176.139273 Z M217.46272,148.922778 C197.451939,150.750558 164.102584,185.128311 144.720378,224.580309 C128.035837,258.541277 123.506184,296.80881 125.717622,314.944624 C127.962568,333.35524 133.078607,341.824092 137.503612,346.018498 C129.726961,320.551646 128.723026,290.954667 136.193209,260.993396 C151.820209,198.316926 199.441757,154.457779 249.11081,152.541381 C243.161978,149.612264 233.398973,147.467164 217.46272,148.922778 Z M653.066512,152.453286 L652.943691,152.509979 C702.952761,153.902076 751.080658,197.919325 766.806791,260.993396 C774.129665,290.363843 773.309338,319.384224 765.94951,344.506749 C769.990967,339.882834 774.279419,331.370728 776.282378,314.944624 C778.493816,296.80881 773.964163,258.541277 757.279622,224.580309 C737.897416,185.128311 704.548061,150.750558 684.53728,148.922778 C668.763491,147.482004 659.037725,149.568902 653.066512,152.453286 Z M418,590 L429,590 M474,590 L484,590 M482,582 L483,582 M434,606 L467,606 M466,598 L475,598 M426,598 L435,598 M418,582 L420,582" id="path-1"></path>
        <filter x="-11.0%" y="-11.1%" width="121.4%" height="123.4%" filterUnits="objectBoundingBox" id="filter-2">
            <feMorphology radius="3" operator="dilate" in="SourceAlpha" result="shadowSpreadOuter1"></feMorphology>
            <feOffset dx="-2" dy="4" in="shadowSpreadOuter1" result="shadowOffsetOuter1"></feOffset>
            <feGaussianBlur stdDeviation="25" in="shadowOffsetOuter1" result="shadowBlurOuter1"></feGaussianBlur>
            <feComposite in="shadowBlurOuter1" in2="SourceAlpha" operator="out" result="shadowBlurOuter1"></feComposite>
            <feColorMatrix values="0 0 0 0 0   0 0 0 0 0   0 0 0 0 0  0 0 0 0.5 0" type="matrix" in="shadowBlurOuter1"></feColorMatrix>
        </filter>
    </defs>
    <g id="Page-1" stroke="none" stroke-width="1" fill="none" fill-rule="evenodd" stroke-linejoin="bevel">
        <g id="logo-dark">
            <use fill="black" fill-opacity="1" filter="url(#filter-2)" xlink:href="#path-1"></use>
            <use stroke="#D5D5D5" stroke-width="2" fill="#232323" fill-rule="evenodd" xlink:href="#path-1"></use>
        </g>
    </g>
</svg>